<svg xmlns="http://www.w3.org/2000/svg" width="20" height="20" fill="none"><g stroke="#000" stroke-linecap="round" stroke-linejoin="round" stroke-width="2" clip-path="url(#a)"><path d="M14.167 17.5v-1.667a3.333 3.333 0 0 0-3.334-3.333H4.167a3.333 3.333 0 0 0-3.334 3.333V17.5M7.5 9.167a3.333 3.333 0 1 0 0-6.667 3.333 3.333 0 0 0 0 6.667ZM19.167 17.5v-1.667a3.333 3.333 0 0 0-2.5-3.225M13.333 2.608a3.333 3.333 0 0 1 0 6.459"/></g><defs><clipPath id="a"><path fill="#fff" d="M0 0h20v20H0z"/></clipPath></defs></svg>